<svg width="201" height="201" xmlns="http://www.w3.org/2000/svg" xmlns:xlink="http://www.w3.org/1999/xlink" xml:space="preserve" overflow="hidden"><g transform="translate(-1375 -445)"><path d="M1475.5 445C1420 445 1375 489.995 1375 545.5 1375 601.005 1420 646 1475.5 646 1531 646 1576 601.005 1576 545.5 1576 489.995 1531 445 1475.5 445Z" fill="#4472C4" fill-rule="evenodd"/><g><g><g><path d="M107.344 62.3196C107.344 56.4768 102.591 51.011 96.7483 51.011 96.659 51.011 96.5757 51.0473 96.4868 51.0507 99.6382 49.2138 101.827 45.8064 101.827 41.9045 101.827 36.0617 97.074 31.3068 91.2328 31.3068 86.6973 31.3068 82.8496 34.1852 81.341 38.2011L81.341 35.774C83.5531 33.8099 84.8692 30.9728 84.8692 27.8778 84.8692 22.0349 80.1159 17.2833 74.2731 17.2833 68.4302 17.2833 63.677 22.0349 63.677 27.8778 63.677 29.6898 64.1267 31.4126 64.9451 32.9237L59.7917 32.9237 59.7917 23.9429C59.7917 20.676 57.7548 17.6835 54.7177 16.4997 53.0362 15.845 51.2771 15.511 49.4899 15.511 44.6887 15.511 40.2792 17.872 37.4224 21.8333 29.8221 22.6236 23.5362 28.4366 21.8151 36.5081 21.7324 36.895 21.6944 37.2918 21.7043 37.6885 21.0578 37.8704 20.4444 38.1812 19.9038 38.6144 16.0913 41.673 13.9056 46.3156 13.9056 51.3449 13.9056 54.44 14.729 57.406 16.2616 59.9587 15.4266 62.0319 14.9935 64.2573 14.9935 66.5356 14.9935 69.7727 15.921 72.9537 17.6752 75.7379 18.2786 76.6935 19.1681 77.4045 20.1899 77.7847 20.3701 85.2181 24.3099 92.0793 30.49 95.71 31.2489 96.1531 32.097 96.3878 32.9501 96.4077 33.0295 96.7417 33.1204 97.0822 33.2213 97.4228 33.2709 97.5915 33.3288 97.7535 33.3949 97.9155 36.1873 104.724 42.5063 109.125 49.4899 109.125 51.0606 109.125 52.6428 108.884 54.2118 108.401 57.5499 107.359 59.7917 104.301 59.7917 100.782L59.7917 91.7123 64.9468 91.7123C64.1284 93.2234 63.677 94.9462 63.677 96.7582 63.677 102.601 68.4303 107.353 74.2731 107.353 80.1159 107.353 84.8692 102.601 84.8692 96.7582 84.8692 93.6599 83.5532 90.8261 81.341 88.8619L81.341 86.4382C82.8499 90.4516 86.6972 93.3292 91.2328 93.3292 97.074 93.3292 101.827 88.5776 101.827 82.7348 101.826 78.7941 99.5819 75.3701 96.3825 73.5448 96.5042 73.5796 96.6257 73.625 96.7483 73.625 102.591 73.625 107.344 68.1625 107.344 62.3196ZM40.3305 26.6014 40.3322 26.5915 40.4543 26.6511 40.3305 26.6014Z" fill="#EFEFEF" transform="matrix(1.00596 0 0 1 1414.01 470.875)"/><path d="M107.344 58.9336C107.344 53.0908 102.591 47.625 96.7483 47.625 96.659 47.625 96.5757 47.6614 96.4868 47.6647 99.6382 45.8278 101.827 42.4204 101.827 38.5185 101.827 32.6757 97.074 27.9208 91.2328 27.9208 86.6973 27.9208 82.8496 30.7992 81.341 34.8151L81.341 32.3881C83.5531 30.4239 84.8692 27.5868 84.8692 24.4918 84.8692 18.649 80.1159 13.8974 74.2731 13.8974 68.4302 13.8974 63.677 18.649 63.677 24.4918 63.677 26.3039 64.1267 28.0266 64.9451 29.5377L59.7917 29.5377 59.7917 20.5569C59.7917 17.29 57.7548 14.2975 54.7177 13.1137 53.0363 12.459 51.2771 12.125 49.4899 12.125 44.6887 12.125 40.2793 14.4859 37.4224 18.4473 29.8221 19.2375 23.5362 25.0506 21.8151 33.1221 21.7324 33.5089 21.6944 33.9057 21.7043 34.3025 21.0578 34.4844 20.4445 34.7952 19.9039 35.2284 16.0913 38.287 13.9056 42.9295 13.9056 47.9589 13.9056 51.0539 14.729 54.0199 16.2616 56.5727 15.4267 58.6459 14.9935 60.8713 14.9935 63.1495 14.9935 66.3867 15.9211 69.5677 17.6752 72.3519 18.2787 73.3075 19.1682 74.0184 20.1899 74.3987 20.3701 81.832 24.31 88.6933 30.49 92.324 31.2489 92.767 32.0971 93.0018 32.9502 93.0217 33.0295 93.3556 33.1204 93.6962 33.2213 94.0368 33.2709 94.2055 33.3288 94.3675 33.3949 94.5295 36.1873 101.338 42.5063 105.739 49.4899 105.739 51.0606 105.739 52.6428 105.498 54.2118 105.015 57.5499 103.973 59.7917 100.915 59.7917 97.3964L59.7917 88.3263 64.9468 88.3263C64.1284 89.8374 63.677 91.5602 63.677 93.3722 63.677 99.215 68.4303 103.967 74.2731 103.967 80.1159 103.967 84.8692 99.215 84.8692 93.3722 84.8692 90.2739 83.5532 87.4401 81.341 85.4759L81.341 83.0522C82.8499 87.0656 86.6972 89.9432 91.2328 89.9432 97.074 89.9432 101.827 85.1916 101.827 79.3488 101.826 75.4081 99.5819 71.9841 96.3825 70.1588 96.5042 70.1936 96.6257 70.239 96.7483 70.239 102.591 70.239 107.344 64.7765 107.344 58.9336ZM40.3305 23.2155 40.3322 23.2056 40.4543 23.2651 40.3305 23.2155Z" fill="#FFFFFF" transform="matrix(1.00596 0 0 1 1414.01 470.875)"/><path d="M40.4543 23.265 40.3224 23.5444 40.0165 23.5223C39.8847 23.5134 39.7552 23.4938 39.6258 23.4762 39.4866 23.4541 39.3482 23.4321 39.205 23.4321 33.2337 23.4321 28.1331 27.847 26.781 34.1792 26.9744 38.2509 28.6282 43.6333 35.3536 46.2717 35.9119 46.4915 36.3521 46.9137 36.5932 47.4633 36.8327 48.0129 36.844 48.6242 36.6264 49.1849 36.1822 50.3106 34.8479 50.902 33.7136 50.4578 28.2997 48.3339 24.6377 44.4467 23.0826 39.1899 20.5039 41.261 18.9844 44.4908 18.9844 47.9601 18.9844 50.9328 20.0621 53.7228 22.0186 55.8158L22.2581 56.0731 22.0671 56.37C20.7612 58.3772 20.0727 60.721 20.0727 63.1484 20.0727 65.4394 20.7256 67.6665 21.9725 69.6432 23.3091 66.5651 26.0844 62.9219 31.8291 61.4531 32.4093 61.2994 33.021 61.3872 33.5348 61.6951 34.0493 62.0007 34.4167 62.491 34.564 63.0714 34.8722 64.2719 34.1465 65.4987 32.9457 65.8066 27.5392 67.1894 25.785 71.1383 25.2664 74.2052 25.3805 79.9526 28.3467 85.1765 33.0606 87.9424 33.4077 83.4484 36.857 80.731 40.2059 80.0208 44.139 79.1831 47.7866 80.9003 49.497 84.407 49.959 85.3524 50.1921 86.3088 50.1921 87.252 50.1921 88.4898 49.1831 89.4989 47.9452 89.4989 46.7048 89.4989 45.6958 88.4898 45.6958 87.252 45.6958 86.9969 45.6165 86.7024 45.4563 86.3792 44.7135 84.8554 43.3526 84.3189 42.0839 84.3189 41.7578 84.3189 41.439 84.3541 41.138 84.4158 39.4033 84.7874 37.616 86.1923 37.5342 88.4964 37.4865 89.8179 37.6685 91.1612 38.0933 92.6012 40.0935 97.48 44.5743 100.659 49.4905 100.659 50.5647 100.659 51.6386 100.493 52.7029 100.163 53.9023 99.7916 54.7126 98.6533 54.7126 97.3976L54.7126 20.5571C54.7126 19.3657 53.9841 18.2771 52.8736 17.8456 51.7875 17.4235 50.6448 17.2055 49.4906 17.2055 45.6828 17.2055 42.2198 19.5273 40.4543 23.265ZM36.5009 37.2858C35.9143 37.1582 35.4126 36.8109 35.0874 36.3051 34.7621 35.7994 34.6545 35.1992 34.7815 34.6144 34.9094 34.0252 35.2589 33.5238 35.7662 33.1985 36.2727 32.8708 36.8707 32.7609 37.4557 32.8929 37.4816 32.8973 40.006 33.4645 42.5742 35.3641 44.3041 32.9808 43.6689 29.9028 43.6406 29.7664 43.5039 29.1881 43.6026 28.5857 43.9189 28.0756 44.2361 27.5656 44.7329 27.2094 45.3179 27.0731 46.5138 26.7895 47.738 27.5458 48.0179 28.7483 48.0309 28.8033 49.3239 34.3812 45.7112 38.6005 45.784 38.695 45.856 38.7895 45.9223 38.8928 48.0948 42.2941 48.6313 46.5507 47.5163 51.5482 47.2881 52.5663 46.3665 53.3072 45.3244 53.3072 45.1529 53.3072 44.9878 53.2874 44.8276 53.25 44.2466 53.1226 43.7458 52.7706 43.4246 52.2629 43.1033 51.7572 42.9982 51.1548 43.1276 50.5698 43.9739 46.7837 43.6406 43.6727 42.134 41.3157 40.1047 38.141 36.5381 37.2945 36.5009 37.2858ZM39.1767 73.4533C39.0513 73.4754 38.9283 73.4841 38.8029 73.4841 37.7017 73.4841 36.7695 72.6926 36.5867 71.6043 36.3868 70.3842 37.2113 69.2275 38.425 69.021 39.0561 68.9065 44.6342 67.7017 44.3089 61.1366 44.2491 59.8988 45.2054 58.8413 46.4434 58.7796 47.0041 58.729 47.5777 58.9291 48.0284 59.3249 48.488 59.7295 48.7696 60.3098 48.8003 60.9144 49.2267 69.4915 42.6923 72.8663 39.1767 73.4533Z" fill="#1A51AA" transform="matrix(1.00596 0 0 1 1414.01 470.875)"/><path d="M76.2618 36.6053 76.2618 29.6255C78.3226 28.8261 79.7903 26.8364 79.7903 24.4928 79.7903 21.4461 77.3201 18.9763 74.2738 18.9763 71.2267 18.9763 68.7564 21.4461 68.7564 24.4928 68.7564 26.8362 70.2234 28.8256 72.2842 29.6253L72.2842 34.6165 59.0527 34.6165 59.0527 38.5941 74.273 38.5941C75.3709 38.5941 76.2618 37.7041 76.2618 36.6053Z" fill="#28B4F9" transform="matrix(1.00596 0 0 1 1414.01 470.875)"/><path d="M82.1999 49.2583 88.7392 43.4132C89.4908 43.7972 90.3299 44.0342 91.2321 44.0342 94.2792 44.0342 96.7486 41.5642 96.7486 38.5175 96.7486 35.4708 94.2792 33.0007 91.2321 33.0007 88.1857 33.0007 85.7155 35.4708 85.7155 38.5175 85.7155 39.2014 85.8555 39.8489 86.0837 40.4533L80.1156 45.7872 59.0527 45.7872 59.0527 49.7648 80.8746 49.7648C81.3632 49.7648 81.8349 49.5852 82.1999 49.2583Z" fill="#28B4F9" transform="matrix(1.00596 0 0 1 1414.01 470.875)"/><path d="M96.7486 53.4157C94.4095 53.4157 92.4222 54.8774 91.6196 56.9327L59.051 56.9578 59.0542 60.9354 91.6131 60.9103C92.4093 62.9768 94.4013 64.449 96.7486 64.449 99.7957 64.449 102.266 61.9792 102.266 58.9325 102.266 55.8856 99.7957 53.4157 96.7486 53.4157Z" fill="#28B4F9" transform="matrix(1.00596 0 0 1 1414.01 470.875)"/><path d="M76.2618 88.2393 76.2618 81.2589C76.2618 80.1601 75.3709 79.2701 74.2729 79.2701L59.0526 79.2701 59.0526 83.2477 72.2841 83.2477 72.2841 88.2395C70.2233 89.0393 68.7563 91.0288 68.7563 93.3719 68.7563 96.4187 71.2266 98.8887 74.2737 98.8887 77.32 98.8887 79.7903 96.4187 79.7903 93.3719 79.7903 91.0284 78.3226 89.0388 76.2618 88.2393Z" fill="#28B4F9" transform="matrix(1.00596 0 0 1 1414.01 470.875)"/><path d="M91.2321 73.8308C90.3299 73.8308 89.4908 74.0681 88.7392 74.452L82.1999 68.6059C81.8349 68.2806 81.3632 68.0994 80.8745 68.0994L59.0526 68.0994 59.0526 72.077 80.1156 72.077 86.0836 77.4119C85.8554 78.0162 85.7155 78.6636 85.7155 79.3475 85.7155 82.3943 88.1857 84.8641 91.232 84.8641 94.2791 84.8641 96.7486 82.3943 96.7486 79.3475 96.7486 76.3006 94.2791 73.8308 91.2321 73.8308Z" fill="#28B4F9" transform="matrix(1.00596 0 0 1 1414.01 470.875)"/></g></g></g><text fill="#EFEFEF" font-family="Times New Roman,Times New Roman_MSFontService,Arial" font-weight="700" font-size="16" transform="translate(1428.3 601)">Global Model</text></g></svg>