<?xml version="1.0" encoding="UTF-8" standalone="no"?><svg xmlns="http://www.w3.org/2000/svg" xmlns:xlink="http://www.w3.org/1999/xlink" contentScriptType="text/ecmascript" fill="#000000" width="431.1" zoomAndPan="magnify" contentStyleType="text/css" viewBox="40.4 9.0 431.1 494.0" height="494" preserveAspectRatio="xMidYMid meet" version="1"><g id="change1_1"><path d="M448.583,64.631c-43.159-6.51-86.028-24.789-127.418-54.329C319.978,9.455,318.556,9,317.098,9H194.902 c-1.458,0-2.88,0.455-4.066,1.302c-41.39,29.54-84.26,47.819-127.418,54.329h0C50.105,66.64,40.444,77.868,40.444,91.329v164.403 c0,28.994,6.977,58.203,20.735,86.816c12.362,25.708,29.879,50.374,52.063,73.312c40.164,41.529,92.854,74.016,140.946,86.902 C254.782,502.92,255.391,503,256,503s1.218-0.08,1.812-0.238c48.092-12.886,100.782-45.373,140.946-86.902 c22.184-22.938,39.701-47.604,52.063-73.312c13.759-28.613,20.735-57.822,20.735-86.816V91.329 C471.556,77.867,461.894,66.64,448.583,64.631z M457.556,255.731c0,114.43-118.513,209.842-201.556,233.012 C172.958,465.574,54.444,370.161,54.444,255.731V91.329c0-6.481,4.652-11.887,11.061-12.854h0 C110.221,71.73,154.496,53.068,197.133,23h117.734c42.636,30.068,86.911,48.73,131.627,55.475 c6.409,0.967,11.061,6.373,11.061,12.854V255.731z M437.773,91.23c-42.657-7.53-84.892-25.367-125.529-53.018 c-1.162-0.79-2.534-1.213-3.938-1.213H203.693c-1.404,0-2.776,0.423-3.938,1.213C159.118,65.863,116.884,83.701,74.227,91.23 c-3.345,0.59-5.783,3.497-5.783,6.893v157.608c0,25.483,6.396,51.327,19.009,76.815c11.01,22.247,26.458,43.729,45.916,63.848 c2.375,2.457,4.856,4.933,7.374,7.36c2.459,2.37,6.27,2.62,9.018,0.591c2.748-2.03,3.629-5.746,2.085-8.793 c-8.285-16.358-12.485-33.967-12.485-52.338V252.05h233.278v91.166c0,18.371-4.201,35.98-12.488,52.339 c-1.543,3.047-0.662,6.764,2.085,8.793c1.243,0.918,2.703,1.37,4.157,1.37c1.761,0,3.514-0.663,4.86-1.96 c2.513-2.423,4.995-4.9,7.376-7.362c19.458-20.12,34.906-41.601,45.917-63.848c12.613-25.488,19.009-51.333,19.009-76.815V98.124 C443.556,94.727,441.118,91.821,437.773,91.23z M345.49,238.05h-32.729v-47.53c0-28.694-23.344-52.039-52.039-52.039h-9.445 c-28.695,0-52.04,23.345-52.04,52.039v47.53H166.51v-42.808c0-49.345,40.146-89.49,89.491-89.49c49.345,0,89.49,40.145,89.49,89.49 V238.05z M298.761,238.05h-85.523v-47.53c0-20.975,17.064-38.039,38.04-38.039h9.445c20.975,0,38.039,17.064,38.039,38.039V238.05z M429.556,255.731c0,37.638-16.02,77.298-45.52,113.531c1.732-8.496,2.603-17.192,2.603-26.047V245.05c0-3.866-3.134-7-7-7H359.49 v-42.808c0-57.064-46.425-103.49-103.49-103.49c-57.065,0-103.491,46.426-103.491,103.49v42.808h-20.148c-3.866,0-7,3.134-7,7 v98.166c0,8.854,0.871,17.551,2.602,26.046c-29.5-36.232-45.52-75.893-45.52-113.53V103.936C124.459,95.64,165.93,77.852,205.839,51 h100.322c39.909,26.852,81.38,44.64,123.396,52.936V255.731z M256,278.738c-22.724,0-41.21,18.487-41.21,41.21 c0,11.423,4.648,22.143,12.862,29.911v41.083c0,15.631,12.717,28.348,28.348,28.348s28.348-12.717,28.348-28.348V349.86 c8.214-7.769,12.862-18.489,12.862-29.911C297.21,297.225,278.724,278.738,256,278.738z M272.977,341.212 c-1.661,1.328-2.628,3.34-2.628,5.467v44.263c0,7.912-6.437,14.348-14.348,14.348s-14.348-6.436-14.348-14.348v-44.263 c0-2.127-0.967-4.139-2.628-5.467c-6.504-5.2-10.234-12.95-10.234-21.263c0-15.004,12.207-27.21,27.21-27.21 s27.21,12.207,27.21,27.21C283.21,328.261,279.48,336.012,272.977,341.212z"/></g></svg>